<svg width="404" height="74" viewBox="0 0 404 74" fill="none" xmlns="http://www.w3.org/2000/svg">
<path d="M21.61 55.9425V73.8149L0 42.1267L21.61 55.9425Z" fill="#0DAFD2"/>
<path d="M43.2209 42.1267L21.6094 73.8149V55.9425L43.2209 42.1267Z" fill="#667BBC"/>
<path d="M43.2209 37.6618L21.6094 25.3342V51.4791L43.2209 37.6618Z" fill="#9E69AC"/>
<path d="M43.2209 37.662L21.6094 0V25.3345L43.2209 37.662Z" fill="#F58B77"/>
<path d="M21.61 0V25.3345L0 37.662L21.61 0Z" fill="#F9EC7B"/>
<path d="M21.61 25.3342V51.4791L0 37.6618L21.61 25.3342Z" fill="#54BC7A"/>
<path d="M65.1504 19.2363C65.1504 17.8117 65.4422 16.5502 66.0257 15.4517C66.6093 14.3532 67.4246 13.5036 68.4716 12.9029C69.5186 12.3022 70.7286 12.0018 72.1017 12.0018C73.4233 12.0018 74.5991 12.3107 75.6289 12.9286C76.6759 13.5465 77.4912 14.4133 78.0747 15.5289C78.6583 16.6446 78.9501 17.9147 78.9501 19.3393V20.4206H68.832C68.8835 21.2788 69.2096 21.974 69.8104 22.506C70.4111 23.0381 71.2006 23.3042 72.179 23.3042C72.8655 23.3042 73.5006 23.1583 74.0842 22.8665C74.6677 22.5575 75.3028 22.034 75.9893 21.296L78.2807 23.6389C77.4912 24.5142 76.5815 25.2008 75.5517 25.6985C74.5218 26.1791 73.3976 26.4194 72.179 26.4194C70.7887 26.4194 69.5615 26.119 68.4973 25.5183C67.4332 24.9176 66.6093 24.0765 66.0257 22.9952C65.4422 21.8967 65.1504 20.6438 65.1504 19.2363ZM75.2427 17.7431C75.1741 16.9879 74.8394 16.3614 74.2386 15.8636C73.6551 15.3659 72.9428 15.117 72.1017 15.117C71.2264 15.117 70.5055 15.3573 69.9391 15.8379C69.3727 16.3185 69.0208 16.9535 68.8835 17.7431H75.2427ZM90.8547 15.6834V21.1673C90.8547 21.6307 90.9577 21.9654 91.1636 22.1713C91.3868 22.3773 91.7472 22.4803 92.2449 22.4803H95.3602V26.0332H91.9103C90.3998 26.0332 89.2327 25.6813 88.4088 24.9776C87.585 24.2567 87.173 23.2355 87.173 21.9139V15.6834H83.8261V12.388H87.173V8.9123H90.8547V12.388H96.2098V15.6834H90.8547ZM101.601 7.23883H105.282V13.6495H105.334C106.295 12.551 107.608 12.0018 109.273 12.0018C110.268 12.0018 111.152 12.2421 111.925 12.7227C112.697 13.2033 113.298 13.8812 113.727 14.7566C114.156 15.6319 114.371 16.6446 114.371 17.7946V26.0332H110.689V18.2837C110.689 17.3741 110.457 16.6618 109.994 16.1468C109.53 15.6319 108.895 15.3745 108.089 15.3745C107.213 15.3745 106.527 15.6319 106.029 16.1468C105.531 16.6446 105.282 17.3397 105.282 18.2322V26.0332H101.601V7.23883ZM118.86 19.2363C118.86 17.8117 119.152 16.5502 119.736 15.4517C120.319 14.3532 121.135 13.5036 122.182 12.9029C123.229 12.3022 124.439 12.0018 125.812 12.0018C127.133 12.0018 128.309 12.3107 129.339 12.9286C130.386 13.5465 131.201 14.4133 131.785 15.5289C132.368 16.6446 132.66 17.9147 132.66 19.3393V20.4206H122.542C122.594 21.2788 122.92 21.974 123.52 22.506C124.121 23.0381 124.911 23.3042 125.889 23.3042C126.576 23.3042 127.211 23.1583 127.794 22.8665C128.378 22.5575 129.013 22.034 129.699 21.296L131.991 23.6389C131.201 24.5142 130.291 25.2008 129.262 25.6985C128.232 26.1791 127.108 26.4194 125.889 26.4194C124.499 26.4194 123.271 26.119 122.207 25.5183C121.143 24.9176 120.319 24.0765 119.736 22.9952C119.152 21.8967 118.86 20.6438 118.86 19.2363ZM128.953 17.7431C128.884 16.9879 128.549 16.3614 127.949 15.8636C127.365 15.3659 126.653 15.117 125.812 15.117C124.936 15.117 124.215 15.3573 123.649 15.8379C123.083 16.3185 122.731 16.9535 122.594 17.7431H128.953ZM138.411 12.388H141.939V13.6495H141.99C142.574 13.0659 143.174 12.6454 143.792 12.388C144.427 12.1305 145.148 12.0018 145.955 12.0018C147.139 12.0018 148.16 12.3536 149.019 13.0574C149.877 13.7439 150.478 14.6879 150.821 15.8894L147.371 17.0222C146.976 15.9066 146.161 15.3487 144.925 15.3487C143.998 15.3487 143.295 15.6233 142.814 16.1726C142.333 16.7047 142.093 17.4427 142.093 18.3867V26.0332H138.411V12.388ZM154.667 19.2363C154.667 17.8117 154.959 16.5502 155.542 15.4517C156.126 14.3532 156.941 13.5036 157.988 12.9029C159.035 12.3022 160.245 12.0018 161.618 12.0018C162.94 12.0018 164.116 12.3107 165.146 12.9286C166.193 13.5465 167.008 14.4133 167.591 15.5289C168.175 16.6446 168.467 17.9147 168.467 19.3393V20.4206H158.349C158.4 21.2788 158.726 21.974 159.327 22.506C159.928 23.0381 160.717 23.3042 161.696 23.3042C162.382 23.3042 163.017 23.1583 163.601 22.8665C164.184 22.5575 164.819 22.034 165.506 21.296L167.797 23.6389C167.008 24.5142 166.098 25.2008 165.068 25.6985C164.039 26.1791 162.914 26.4194 161.696 26.4194C160.305 26.4194 159.078 26.119 158.014 25.5183C156.95 24.9176 156.126 24.0765 155.542 22.9952C154.959 21.8967 154.667 20.6438 154.667 19.2363ZM164.759 17.7431C164.691 16.9879 164.356 16.3614 163.755 15.8636C163.172 15.3659 162.459 15.117 161.618 15.117C160.743 15.117 160.022 15.3573 159.456 15.8379C158.889 16.3185 158.538 16.9535 158.4 17.7431H164.759ZM173.343 21.399V12.388H177.024V20.5494C177.024 22.2143 177.848 23.0467 179.496 23.0467C180.234 23.0467 180.818 22.8236 181.247 22.3773C181.693 21.9139 181.916 21.3046 181.916 20.5494V12.388H185.598V26.0332H182.071V24.8232H182.019C181.641 25.3037 181.118 25.6899 180.449 25.9817C179.796 26.2735 179.11 26.4194 178.389 26.4194C176.776 26.4194 175.531 25.9817 174.656 25.1064C173.78 24.2138 173.343 22.978 173.343 21.399ZM190.088 12.388H193.331V13.5723H193.383C193.675 13.1088 194.044 12.757 194.49 12.5167C194.953 12.2592 195.46 12.1305 196.009 12.1305C197.09 12.1305 197.957 12.6368 198.609 13.6495H198.661C199.347 12.6368 200.291 12.1305 201.493 12.1305C202.488 12.1305 203.295 12.4824 203.913 13.1861C204.531 13.8898 204.84 14.8081 204.84 15.9409V26.0332H201.441V16.5845C201.441 16.1898 201.338 15.8894 201.132 15.6834C200.926 15.4775 200.635 15.3745 200.257 15.3745C199.897 15.3745 199.605 15.4946 199.382 15.7349C199.176 15.958 199.073 16.267 199.073 16.6618V26.0332H195.855V16.5845C195.855 16.2069 195.752 15.9151 195.546 15.7092C195.357 15.486 195.082 15.3745 194.722 15.3745C194.344 15.3745 194.044 15.4946 193.821 15.7349C193.598 15.958 193.486 16.267 193.486 16.6618V26.0332H190.088V12.388ZM230.4 17.2024H226.795V13.907H230.4V11.8988C230.4 10.6973 230.794 9.75332 231.584 9.06677C232.391 8.36305 233.498 8.0112 234.905 8.0112H238.87V11.2809H235.343C234.982 11.2809 234.708 11.3753 234.519 11.5641C234.33 11.7529 234.236 12.0189 234.236 12.3622V13.907H239.694V17.2024H234.236V26.0332H230.4V17.2024ZM244.184 19.2106C244.184 17.8032 244.476 16.5588 245.059 15.4775C245.643 14.379 246.458 13.5294 247.505 12.9286C248.569 12.3107 249.779 12.0018 251.135 12.0018C252.508 12.0018 253.718 12.3107 254.765 12.9286C255.829 13.5294 256.653 14.379 257.237 15.4775C257.82 16.5588 258.112 17.8032 258.112 19.2106C258.112 20.618 257.82 21.871 257.237 22.9695C256.653 24.0508 255.829 24.9004 254.765 25.5183C253.718 26.119 252.508 26.4194 251.135 26.4194C249.779 26.4194 248.569 26.119 247.505 25.5183C246.458 24.9004 245.643 24.0508 245.059 22.9695C244.476 21.871 244.184 20.618 244.184 19.2106ZM254.431 19.2106C254.431 18.0091 254.139 17.0737 253.555 16.4043C252.989 15.7177 252.182 15.3745 251.135 15.3745C250.105 15.3745 249.299 15.7177 248.715 16.4043C248.149 17.0737 247.865 18.0091 247.865 19.2106C247.865 20.4121 248.149 21.3561 248.715 22.0426C249.299 22.712 250.105 23.0467 251.135 23.0467C252.165 23.0467 252.972 22.7034 253.555 22.0169C254.139 21.3303 254.431 20.3949 254.431 19.2106ZM262.859 21.399V12.388H266.541V20.5494C266.541 22.2143 267.365 23.0467 269.013 23.0467C269.751 23.0467 270.334 22.8236 270.763 22.3773C271.21 21.9139 271.433 21.3046 271.433 20.5494V12.388H275.114V26.0332H271.587V24.8232H271.536C271.158 25.3037 270.635 25.6899 269.965 25.9817C269.313 26.2735 268.626 26.4194 267.906 26.4194C266.292 26.4194 265.048 25.9817 264.172 25.1064C263.297 24.2138 262.859 22.978 262.859 21.399ZM280.634 12.388H284.316V13.6753H284.367C284.916 13.126 285.509 12.7141 286.144 12.4395C286.779 12.1477 287.5 12.0018 288.306 12.0018C289.199 12.0018 290.031 12.2163 290.804 12.6454C291.576 13.0574 292.202 13.701 292.683 14.5764C293.164 15.4345 293.404 16.5073 293.404 17.7946V26.0332H289.722V18.2837C289.722 17.4084 289.499 16.7047 289.053 16.1726C288.607 15.6405 287.963 15.3745 287.122 15.3745C286.247 15.3745 285.56 15.6319 285.062 16.1468C284.565 16.6446 284.316 17.3397 284.316 18.2322V26.0332H280.634V12.388ZM297.611 19.2106C297.611 17.8375 297.877 16.6017 298.409 15.5032C298.941 14.4047 299.687 13.5465 300.649 12.9286C301.61 12.3107 302.7 12.0018 303.918 12.0018C305.463 12.0018 306.673 12.4137 307.548 13.2376H307.6V7.23883H311.281V26.0332H307.883V24.8489H307.832C306.819 25.8959 305.497 26.4194 303.867 26.4194C302.665 26.4194 301.584 26.119 300.623 25.5183C299.679 24.9176 298.941 24.0765 298.409 22.9952C297.877 21.8967 297.611 20.6352 297.611 19.2106ZM307.6 20.0859V18.3095C307.6 17.7946 307.463 17.314 307.188 16.8677C306.913 16.4215 306.527 16.061 306.029 15.7864C305.549 15.5118 305.008 15.3745 304.407 15.3745C303.446 15.3745 302.682 15.7263 302.116 16.43C301.567 17.1166 301.292 18.0434 301.292 19.2106C301.292 20.3606 301.575 21.2874 302.142 21.9911C302.708 22.6948 303.455 23.0467 304.382 23.0467C305.308 23.0467 306.072 22.7635 306.673 22.1971C307.291 21.6135 307.6 20.9098 307.6 20.0859ZM316.647 22.3773C316.647 21.1072 317.076 20.1203 317.934 19.4166C318.809 18.7128 320.26 18.1979 322.285 17.8718C323.349 17.7002 324.07 17.5114 324.448 17.3054C324.842 17.0823 325.04 16.7905 325.04 16.43C325.04 16.0181 324.851 15.692 324.473 15.4517C324.096 15.2114 323.581 15.0913 322.929 15.0913C322.191 15.0913 321.547 15.3144 320.998 15.7607C320.466 16.2069 320.122 16.7991 319.968 17.5371L316.544 16.7647C316.715 15.8379 317.102 15.014 317.702 14.2932C318.303 13.5723 319.058 13.0144 319.968 12.6197C320.878 12.2077 321.864 12.0018 322.929 12.0018C324.679 12.0018 326.078 12.491 327.125 13.4693C328.172 14.4476 328.696 15.7521 328.696 17.3826V26.0332H325.4V24.5142H325.349C324.954 25.1149 324.396 25.5869 323.675 25.9302C322.972 26.2563 322.173 26.4194 321.281 26.4194C320.388 26.4194 319.59 26.2478 318.887 25.9045C318.183 25.5612 317.634 25.0806 317.239 24.4627C316.844 23.8448 316.647 23.1497 316.647 22.3773ZM325.194 20.9613V19.4166H325.143C324.988 19.674 324.731 19.88 324.37 20.0344C324.01 20.1889 323.444 20.3434 322.671 20.4979C321.71 20.7038 321.049 20.927 320.689 21.1673C320.328 21.3904 320.148 21.7079 320.148 22.1199C320.148 22.5146 320.303 22.815 320.612 23.021C320.938 23.2269 321.401 23.3299 322.002 23.3299C322.551 23.3299 323.075 23.2269 323.572 23.021C324.07 22.7978 324.465 22.506 324.757 22.1456C325.048 21.768 325.194 21.3732 325.194 20.9613ZM341.501 15.6834V21.1673C341.501 21.6307 341.604 21.9654 341.81 22.1713C342.033 22.3773 342.394 22.4803 342.892 22.4803H346.007V26.0332H342.557C341.046 26.0332 339.879 25.6813 339.055 24.9776C338.232 24.2567 337.82 23.2355 337.82 21.9139V15.6834H334.473V12.388H337.82V8.9123H341.501V12.388H346.856V15.6834H341.501ZM365.275 22.6605V26.0332H351.861V22.6605H356.727V15.7607H352.119V12.388H360.409V22.6605H365.275ZM356.65 6.62093H360.435V10.2511H356.65V6.62093ZM369.507 19.2106C369.507 17.8032 369.799 16.5588 370.382 15.4775C370.966 14.379 371.781 13.5294 372.828 12.9286C373.892 12.3107 375.102 12.0018 376.458 12.0018C377.831 12.0018 379.042 12.3107 380.089 12.9286C381.153 13.5294 381.977 14.379 382.56 15.4775C383.144 16.5588 383.435 17.8032 383.435 19.2106C383.435 20.618 383.144 21.871 382.56 22.9695C381.977 24.0508 381.153 24.9004 380.089 25.5183C379.042 26.119 377.831 26.4194 376.458 26.4194C375.102 26.4194 373.892 26.119 372.828 25.5183C371.781 24.9004 370.966 24.0508 370.382 22.9695C369.799 21.871 369.507 20.618 369.507 19.2106ZM379.754 19.2106C379.754 18.0091 379.462 17.0737 378.878 16.4043C378.312 15.7177 377.505 15.3745 376.458 15.3745C375.429 15.3745 374.622 15.7177 374.038 16.4043C373.472 17.0737 373.189 18.0091 373.189 19.2106C373.189 20.4121 373.472 21.3561 374.038 22.0426C374.622 22.712 375.429 23.0467 376.458 23.0467C377.488 23.0467 378.295 22.7034 378.878 22.0169C379.462 21.3303 379.754 20.3949 379.754 19.2106ZM388.054 12.388H391.736V13.6753H391.787C392.336 13.126 392.929 12.7141 393.564 12.4395C394.199 12.1477 394.92 12.0018 395.726 12.0018C396.619 12.0018 397.451 12.2163 398.224 12.6454C398.996 13.0574 399.622 13.701 400.103 14.5764C400.584 15.4345 400.824 16.5073 400.824 17.7946V26.0332H397.142V18.2837C397.142 17.4084 396.919 16.7047 396.473 16.1726C396.027 15.6405 395.383 15.3745 394.542 15.3745C393.667 15.3745 392.98 15.6319 392.482 16.1468C391.985 16.6446 391.736 17.3397 391.736 18.2322V26.0332H388.054V12.388Z" fill="#C5CFE0"/>
<path d="M77.4674 42.6125V57.3069H82.9949V61.9761H66.8243V57.3069H72.3862V42.6125H66.8243V37.9433H82.9949V42.6125H77.4674ZM90.3555 37.9433H100.072C102.635 37.9433 104.661 38.6528 106.148 40.0719C107.636 41.4681 108.38 43.4022 108.38 45.8741C108.38 48.3461 107.636 50.2687 106.148 51.642C104.661 53.0153 102.612 53.7019 100.003 53.7019H95.4367V61.9761H90.3555V37.9433ZM99.9686 49.067C100.976 49.067 101.777 48.7809 102.372 48.2087C102.99 47.6136 103.299 46.824 103.299 45.8398C103.299 43.6883 102.2 42.6125 100.003 42.6125H95.4367V49.067H99.9686ZM120.135 42.6125H112.342V37.9433H132.976V42.6125H125.216V61.9761H120.135V42.6125ZM138.105 37.9433H155.648V42.6125H143.186V48.4147H154.927V52.878H143.186V61.9761H138.105V37.9433Z" fill="#FFFFFF"/>
</svg>
