<svg xmlns="http://www.w3.org/2000/svg" width="621.6" height="131.2" viewBox="0 0 621.6 131.2"><g fill="#0a0a0a" stroke="#0a0a0a" transform="translate(28.81 28.81)scale(.46017)"><polygon points="50,0 80,48 20,48"/><polygon points="13.75,58 86.25,58 100,80 83.75,106 16.25,106 0,80"/><polygon points="22.5,116 77.5,116 50,160"/></g><g fill="#0a0a0a"><path d="M104.701 81.63h22.237v-4.92h-16.565v-8.916h15.319V62.96h-15.319v-8.422h16.565v-4.92H104.7Z"/><path d="M132.665 54.538h9.97V81.63h5.693V54.538h9.925v-4.92h-25.588Z"/><path d="M165.227 81.63h5.672V67.75h14.76v13.88h5.693V49.618h-5.693v13.213h-14.76V49.618h-5.672Z"/><path d="M199.98 81.63h22.237v-4.92h-16.565v-8.916h15.319V62.96h-15.319v-8.422h16.565v-4.92H199.98Z"/><path d="M229.62 81.63h5.672V69.985h6.595l6.016 11.645h6.252l-6.681-12.676c3.802-1.547 6.08-4.748 6.08-9.11 0-6.273-4.405-10.226-11.451-10.226H229.62Zm5.672-16.328V54.43h6.488c3.825 0 6.188 2.084 6.188 5.414 0 3.351-2.363 5.457-6.145 5.457Z"/><path d="M261.258 81.63h22.236v-4.92H266.93v-8.916h15.318V62.96H266.93v-8.422h16.564v-4.92h-22.236Z"/><path d="M303.724 82.146c7.82 0 12.934-4.77 12.934-11.58V49.617h-5.608v20.496c0 4.082-2.836 7.004-7.326 7.004s-7.348-2.943-7.348-7.004V49.618h-5.607v20.947c0 6.832 5.113 11.58 12.955 11.58"/><path d="M325.157 81.63h5.586V65.302c0-2.149-.108-5.479-.172-8.637 1.117 3.459 2.191 6.768 2.857 8.637l6.145 16.328h4.64l6.102-16.328c.688-1.955 1.783-5.479 2.922-9.088-.086 3.287-.193 6.832-.193 9.088V81.63h5.586V49.618h-8.207l-6.124 16.822a410 410 0 0 0-2.363 7.477 283 283 0 0 0-2.385-7.477l-6.23-16.822h-8.164Z"/><path d="M391.184 82.124c6.66 0 11.128-3.695 11.128-9.066 0-4.297-2.793-6.961-8.787-8.551l-3.63-.988c-4.62-1.225-6.532-2.944-6.532-5.672 0-3.524 3.158-6.037 7.563-6.037 4.533 0 7.498 2.664 7.756 6.767h2.878c-.214-5.736-4.296-9.453-10.548-9.453-6.274 0-10.528 3.588-10.528 8.852 0 4.125 2.621 6.681 8.659 8.271l3.587.967c4.813 1.289 6.66 3.03 6.66 5.951 0 3.803-3.265 6.295-8.206 6.295-5.178 0-8.315-2.772-8.422-7.219h-2.965c.107 6.016 4.512 9.883 11.387 9.883"/><path d="M419.75 81.63h2.9V67.772l11.902-18.154h-3.373l-6.832 10.463a316 316 0 0 0-3.137 4.963c-1.031-1.654-2.04-3.309-3.137-4.963l-6.875-10.463h-3.373l11.924 18.154Z"/><path d="M451.451 82.124c6.66 0 11.13-3.695 11.13-9.066 0-4.297-2.794-6.961-8.788-8.551l-3.63-.988c-4.62-1.225-6.532-2.944-6.532-5.672 0-3.524 3.158-6.037 7.563-6.037 4.533 0 7.498 2.664 7.756 6.767h2.878c-.214-5.736-4.296-9.453-10.548-9.453-6.274 0-10.528 3.588-10.528 8.852 0 4.125 2.621 6.681 8.658 8.271l3.588.967c4.813 1.289 6.66 3.03 6.66 5.951 0 3.803-3.265 6.295-8.207 6.295-5.177 0-8.314-2.772-8.421-7.219h-2.965c.107 6.016 4.511 9.883 11.386 9.883"/><path d="M468.802 52.24h10.7v29.39h2.9V52.24h10.656v-2.622h-24.256Z"/><path d="M500.827 81.63h20.324v-2.621h-17.424v-12.44h16.05v-2.62h-16.05v-11.71h17.424v-2.62h-20.324Z"/><path d="M529.328 81.63h2.879V61.112c0-2.127-.043-4.662-.107-7.111 1.117 2.836 2.105 5.35 2.835 7.111l8.508 20.518h2.45l8.486-20.518c.752-1.804 1.783-4.468 2.879-7.412a466 466 0 0 0-.086 7.412V81.63h2.857V49.618h-3.974l-9.024 22.28a970 970 0 0 0-2.32 5.93 250 250 0 0 0-2.32-5.93l-9.11-22.28h-3.953Z"/><path d="M579.83 82.124c6.66 0 11.128-3.695 11.128-9.066 0-4.297-2.793-6.961-8.787-8.551l-3.63-.988c-4.62-1.225-6.532-2.944-6.532-5.672 0-3.524 3.158-6.037 7.562-6.037 4.534 0 7.498 2.664 7.756 6.767h2.88c-.216-5.736-4.298-9.453-10.55-9.453-6.273 0-10.527 3.588-10.527 8.852 0 4.125 2.621 6.681 8.658 8.271l3.588.967c4.813 1.289 6.66 3.03 6.66 5.951 0 3.803-3.265 6.295-8.207 6.295-5.178 0-8.314-2.772-8.422-7.219h-2.964c.107 6.016 4.511 9.883 11.386 9.883"/></g></svg>